<svg width="26" height="26" viewBox="0 0 26 26" fill="none" xmlns="http://www.w3.org/2000/svg">
<path fill-rule="evenodd" clip-rule="evenodd" d="M5.58906 3.00318C5.36706 3.0027 5.15305 3.02783 4.9497 3.0756C4.67092 2.46117 4.3027 1.90993 3.88388 1.49112C3.17304 0.780276 2.05194 0.5 0.5 0.5V3C1.44806 3 1.99362 3.13639 2.11612 3.25888C2.58858 3.73135 3 4.69133 3 5.5L3.01256 5.67678L4.2374 14.2506C2.18794 14.357 0.600247 15.9485 0.501536 17.9381L0.5 19.25C0.621027 21.3049 2.20344 22.8857 4.17905 22.998L4.46282 22.9984C4.97717 24.4557 6.36664 25.5 8 25.5C9.63277 25.5 11.0218 24.4565 11.5366 23H14.4634C14.9782 24.4565 16.3672 25.5 18 25.5C20.0711 25.5 21.75 23.8211 21.75 21.75C21.75 19.6789 20.0711 18 18 18C16.3672 18 14.9782 19.0435 14.4634 20.5H11.5366C11.0218 19.0435 9.63277 18 8 18C6.36723 18 4.97818 19.0435 4.46338 20.5H4.25C3.61251 20.4617 3.04067 19.8905 2.99776 19.1751L3 18C3.03371 17.3516 3.60164 16.7837 4.31194 16.7485L6.77962 16.7491L6.7975 16.75H19.3961L19.5806 16.6915C20.5283 16.3907 21.2871 15.677 21.6463 14.7532L21.778 14.4925L22.2058 13.6448C22.6485 12.7674 23.0911 11.8884 23.5225 11.0298C24.579 8.92634 25.2435 7.58958 25.3906 7.26132C26.1463 5.57556 24.6155 4.27808 23.0509 4.25045L5.58906 3.00318ZM18.9618 14.25H6.89109C6.81083 14.2277 6.74966 14.1597 6.73769 14.075L5.51282 5.50092L22.8667 6.74366C22.5631 7.3629 22.0111 8.46895 21.2885 9.90761L21.2704 9.94366C20.8579 10.7648 20.4158 11.6426 19.9738 12.5188L19.5464 13.3654L19.3845 13.686L19.3235 13.8278C19.2582 14.0097 19.1285 14.1592 18.9618 14.25ZM18 23C18.6904 23 19.25 22.4403 19.25 21.75C19.25 21.0596 18.6904 20.5 18 20.5C17.3096 20.5 16.75 21.0596 16.75 21.75C16.75 22.4403 17.3096 23 18 23ZM9.25 21.75C9.25 22.4403 8.69035 23 8 23C7.30964 23 6.75 22.4403 6.75 21.75C6.75 21.0596 7.30964 20.5 8 20.5C8.69035 20.5 9.25 21.0596 9.25 21.75Z" fill="black" fill-opacity="0.75"/>
</svg>
